<svg xmlns="http://www.w3.org/2000/svg" viewBox="0 0 240 240"><defs><linearGradient id="gold" x1="0" y1="0" x2="1" y2="1"><stop stop-color="#fffde9"/><stop offset=".32" stop-color="#ffe59d"/><stop offset=".7" stop-color="#d99a46"/><stop offset="1" stop-color="#ffe0a5"/></linearGradient><linearGradient id="jade" x1="0" y1="0" x2="1" y2="1"><stop stop-color="#f9d48b"/><stop offset=".56" stop-color="#856135"/><stop offset="1" stop-color="#252a4d"/></linearGradient><linearGradient id="pink" x1="0" y1="0" x2="1" y2="1"><stop stop-color="#fff4d2"/><stop offset=".3" stop-color="#ffb0bb"/><stop offset=".68" stop-color="#c24081"/><stop offset="1" stop-color="#572255"/></linearGradient><radialGradient id="glow"><stop stop-color="#f9d48b" stop-opacity=".56"/><stop offset="1" stop-color="#f9d48b" stop-opacity="0"/></radialGradient><filter id="drop" x="-35%" y="-35%" width="170%" height="170%"><feDropShadow dx="0" dy="5" stdDeviation="4" flood-color="#130a31" flood-opacity=".65"/></filter></defs><circle cx="120" cy="120" r="113" fill="url(#glow)"/><circle cx="120" cy="120" r="98" stroke="#f9d48b" stroke-opacity=".4" stroke-dasharray="34 16" stroke-width="3" fill="none"/><g><path d="M12 12h8M16 8v8" stroke="#fff5d2" stroke-width="2.8" opacity=".58"/><path d="M79 95h8M83 91v8" stroke="#fff5d2" stroke-width="2.8" opacity=".58"/><path d="M146 178h8M150 174v8" stroke="#fff5d2" stroke-width="2.8" opacity=".58"/><path d="M213 60h8M217 56v8" stroke="#fff5d2" stroke-width="2.8" opacity=".58"/><path d="M71 143h8M75 139v8" stroke="#fff5d2" stroke-width="2.8" opacity=".58"/><path d="M138 25h8M142 21v8" stroke="#fff5d2" stroke-width="2.8" opacity=".58"/><path d="M205 108h8M209 104v8" stroke="#fff5d2" stroke-width="2.8" opacity=".58"/><path d="M63 191h8M67 187v8" stroke="#fff5d2" stroke-width="2.8" opacity=".58"/><path d="M130 73h8M134 69v8" stroke="#fff5d2" stroke-width="2.8" opacity=".58"/></g><g filter="url(#drop)"><g><circle cx="52" cy="193" r="24" fill="url(#gold)" stroke="#8c4a28" stroke-width="3"/><circle cx="52" cy="193" r="16.32" fill="none" stroke="#fff6d1" stroke-width="2"/><path d="M44 193h16.080000000000002M52 185v16.080000000000002" stroke="#ad6330" stroke-width="3"/></g><g><circle cx="178" cy="185" r="29" fill="url(#gold)" stroke="#8c4a28" stroke-width="3"/><circle cx="178" cy="185" r="19.720000000000002" fill="none" stroke="#fff6d1" stroke-width="2"/><path d="M168.33333333333334 185h19.43M178 175.33333333333334v19.43" stroke="#ad6330" stroke-width="3"/></g><g fill="url(#gold)" stroke="#a76128" stroke-width="5"><rect x="48" y="143" width="87" height="22" rx="9"/><rect x="48" y="122" width="87" height="22" rx="9"/><rect x="112" y="122" width="97" height="24" rx="10"/><rect x="112" y="100" width="97" height="24" rx="10"/><rect x="112" y="78" width="97" height="24" rx="10"/><rect x="156" y="55" width="51" height="23" rx="10"/></g><g><circle cx="73" cy="77" r="34" fill="url(#gold)" stroke="#8c4a28" stroke-width="3"/><circle cx="73" cy="77" r="23.12" fill="none" stroke="#fff6d1" stroke-width="2"/><path d="M61.666666666666664 77h22.78M73 65.66666666666667v22.78" stroke="#ad6330" stroke-width="3"/></g><path d="M76 22v30M62 37h30" stroke="#fff2b4" stroke-width="6"/></g></svg>